<?xml version="1.0" encoding="UTF-8" standalone="no"?>
<svg
   xml:space="preserve"
   height="228.02"
   viewBox="0 0 300.82999 228.0175"
   width="300.82999"
   version="1.1"
   id="svg10"
   sodipodi:docname="logo.svg"
   inkscape:export-filename="white.svg"
   inkscape:export-xdpi="96"
   inkscape:export-ydpi="96"
   xmlns:inkscape="http://www.inkscape.org/namespaces/inkscape"
   xmlns:sodipodi="http://sodipodi.sourceforge.net/DTD/sodipodi-0.dtd"
   xmlns="http://www.w3.org/2000/svg"
   xmlns:svg="http://www.w3.org/2000/svg"><defs
     id="defs14" /><sodipodi:namedview
     id="namedview12"
     pagecolor="#ffffff"
     bordercolor="#000000"
     borderopacity="0.25"
     inkscape:showpageshadow="2"
     inkscape:pageopacity="0.0"
     inkscape:pagecheckerboard="0"
     inkscape:deskcolor="#d1d1d1"
     showgrid="false" /><g
     transform="matrix(1.25,0,0,-1.25,-165.25,360.22)"
     id="g8"><g
       transform="matrix(0.5,0,0,0.5,127.13,99.01)"
       id="g6"><path
         d="M 329.38,374.58 H 488.4 l -54.635,-89.713 h -9.355 l -0.213,-178.58 h 9.568 L 488.4,16.149 H 254.12 l 54.424,89.714 h 9.779 l -0.213,56.548 -67.073,-114.37 -67.922,115.24 v -57.204 h 9.567 L 246.893,16.152 H 13.473 l 54.21,89.925 h 9.78 v 178.79 H 67.896 L 13.473,374.58 h 159.02 l 78.447,-133.93 78.446,133.93 z"
         id="path2" /><path
         d="M 343.62,81.418 H 322.999 L 299.188,41.876 h 144.78 l -23.386,39.542 h -20.407 l -0.213,228.75 h 20.196 l 23.81,39.967 h -99.492 l -93.328,-158.38 -92.901,158.38 H 58.117 l 24.024,-39.967 h 20.196 l 0.212,-228.75 H 82.141 L 58.117,41.876 h 144.99 l -24.236,39.756 h -20.196 l 0.212,173.26 92.158,-157.32 92.371,157.1 0.213,-173.26 z"
         fill="#b61e2e"
         id="path4"
         style="fill:#000000;fill-opacity:1;stroke:#ffffff;stroke-width:51.2;stroke-linecap:butt;stroke-linejoin:miter;stroke-dasharray:none;stroke-opacity:1;paint-order:stroke markers fill" /></g></g></svg>
