<?xml version="1.0" encoding="UTF-8" standalone="no"?>
<svg
   xml:space="preserve"
   height="228.02"
   viewBox="0 0 300.82999 228.0175"
   width="300.82999"
   version="1.1"
   id="svg10"
   sodipodi:docname="logo.svg"
   xmlns:inkscape="http://www.inkscape.org/namespaces/inkscape"
   xmlns:sodipodi="http://sodipodi.sourceforge.net/DTD/sodipodi-0.dtd"
   xmlns="http://www.w3.org/2000/svg"
   xmlns:svg="http://www.w3.org/2000/svg"><defs
     id="defs14" /><sodipodi:namedview
     id="namedview12"
     pagecolor="#ffffff"
     bordercolor="#000000"
     borderopacity="0.25"
     inkscape:showpageshadow="2"
     inkscape:pageopacity="0.0"
     inkscape:pagecheckerboard="0"
     inkscape:deskcolor="#d1d1d1"
     showgrid="false" /><g
     transform="matrix(1.25,0,0,-1.25,-165.25,360.22)"
     id="g8"><g
       transform="matrix(0.5,0,0,0.5,127.13,99.01)"
       id="g6"><path
         d="M 329.38,374.58 H 488.4 l -54.635,-89.713 h -9.355 l -0.213,-178.58 h 9.568 L 488.4,16.149 H 254.12 l 54.424,89.714 h 9.779 l -0.213,56.548 -67.073,-114.37 -67.922,115.24 v -57.204 h 9.567 L 246.893,16.152 H 13.473 l 54.21,89.925 h 9.78 v 178.79 H 67.896 L 13.473,374.58 h 159.02 l 78.447,-133.93 78.446,133.93 z"
         id="path2" /><path
         d="M 343.62,81.418 H 322.999 L 299.188,41.876 h 144.78 l -23.386,39.542 h -20.407 l -0.213,228.75 h 20.196 l 23.81,39.967 h -99.492 l -93.328,-158.38 -92.901,158.38 H 58.117 l 24.024,-39.967 h 20.196 l 0.212,-228.75 H 82.141 L 58.117,41.876 h 144.99 l -24.236,39.756 h -20.196 l 0.212,173.26 92.158,-157.32 92.371,157.1 0.213,-173.26 z"
         fill="#b61e2e"
         id="path4"
         style="fill:#ffffff;fill-opacity:1" /><path
         style="fill:#ffffff;fill-opacity:1;stroke-width:0.966186"
         d="m 31.40106,209.62057 c 0,-0.28874 3.152183,-5.71991 7.004852,-12.06928 l 7.004852,-11.54431 6.521758,-0.008 6.521759,-0.008 V 114.01 42.029111 H 51.908815 45.36335 L 38.623751,30.762563 c -3.706779,-6.196601 -6.884526,-11.6314 -7.06166,-12.07733 -0.177134,-0.445931 13.35515,-0.810784 30.071743,-0.810784 h 30.393805 l 28.729781,49.033963 c 15.80138,26.96868 29.03786,49.367858 29.41438,49.775948 0.37652,0.40809 13.87761,-21.657194 30.0024,-49.033965 l 29.31781,-49.775946 h 30.3583 30.35831 l -2.73677,4.650256 c -1.50522,2.557641 -4.69329,7.987107 -7.0846,12.065481 l -4.34784,7.415225 -6.52176,0.01185 -6.52176,0.01185 V 114.01 185.99089 h 6.57051 6.5705 l 6.93703,11.83579 6.93704,11.83578 -43.6104,0.2515 c -23.98571,0.13832 -43.79964,0.0622 -44.03092,-0.16903 -0.23129,-0.23129 2.71874,-5.67056 6.55562,-12.08728 l 6.97614,-11.66676 h 6.63898 6.63898 v -54.58953 c 0,-30.02425 -0.32609,-54.581386 -0.72464,-54.571424 -0.61843,0.01546 -9.51752,14.995973 -51.99454,87.526424 l -5.85915,10.00461 -28.44048,-48.73262 C 106.5183,98.825405 93.393999,76.876846 92.995447,76.853773 c -0.398552,-0.02307 -0.72464,24.523337 -0.72464,54.547587 v 54.58953 l 6.521758,0.0277 6.521755,0.0277 6.76331,11.21501 c 3.71982,6.16826 6.90823,11.5906 7.08537,12.04963 0.17796,0.46115 -19.382883,0.83456 -43.719941,0.83456 -24.223099,0 -44.041999,-0.23624 -44.041999,-0.52498 z"
         id="path4881"
         transform="matrix(1.6,0,0,-1.6,10.14,378.33401)" /></g></g></svg>
