<?xml version="1.0" standalone="no"?>
<!DOCTYPE svg PUBLIC "-//W3C//DTD SVG 20010904//EN"
 "http://www.w3.org/TR/2001/REC-SVG-20010904/DTD/svg10.dtd">
<svg version="1.0" xmlns="http://www.w3.org/2000/svg"
 width="1204.000000pt" height="1204.000000pt" viewBox="0 0 1204.000000 1204.000000"
 preserveAspectRatio="xMidYMid meet">
<metadata>
Created by potrace 1.14, written by Peter Selinger 2001-2017
</metadata>
<g transform="translate(0.000000,1204.000000) scale(0.100000,-0.100000)"
fill="#000000" stroke="none">
<path d="M90 10482 c0 -5 49 -88 88 -151 12 -20 25 -43 29 -51 4 -8 9 -17 12
-20 8 -7 29 -41 43 -70 7 -14 15 -27 18 -30 9 -8 110 -177 110 -184 0 -3 7
-14 15 -23 8 -10 15 -22 14 -27 0 -5 3 -12 8 -15 10 -6 59 -86 101 -161 14
-25 28 -47 31 -50 4 -3 49 -76 101 -163 52 -87 105 -175 117 -195 13 -20 39
-64 58 -97 20 -33 54 -89 75 -124 22 -34 40 -65 40 -67 0 -1 13 -23 30 -47 16
-25 30 -49 30 -55 0 -6 3 -12 8 -14 4 -1 38 -55 76 -118 38 -63 81 -133 95
-155 14 -22 26 -42 26 -45 0 -3 12 -23 26 -45 14 -22 46 -73 70 -113 24 -40
52 -85 62 -100 9 -15 24 -41 32 -59 8 -17 19 -35 25 -38 6 -4 8 -10 5 -15 -3
-4 27 -7 65 -7 39 1 70 -1 70 -5 0 -4 10 -4 23 0 26 8 56 8 77 -2 13 -5 15
-263 15 -2232 0 -1648 -3 -2227 -12 -2232 -6 -4 -61 -7 -123 -6 l-111 1 -91
-151 c-49 -83 -121 -202 -159 -265 -38 -63 -69 -118 -69 -123 0 -4 -4 -8 -10
-8 -5 0 -10 -4 -10 -9 0 -6 -25 -50 -55 -98 -30 -48 -64 -106 -76 -128 -12
-22 -24 -42 -28 -45 -3 -3 -13 -18 -21 -35 -8 -16 -21 -36 -28 -43 -6 -7 -12
-20 -12 -28 0 -8 -4 -14 -10 -14 -5 0 -10 -7 -10 -15 0 -8 -4 -15 -8 -15 -5 0
-14 -16 -22 -35 -8 -19 -16 -35 -20 -35 -3 0 -14 -17 -25 -38 -11 -20 -24 -40
-30 -44 -7 -5 -7 -8 0 -8 7 0 7 -3 0 -8 -13 -9 -75 -111 -75 -123 0 -5 -4 -9
-10 -9 -5 0 -10 -4 -10 -9 0 -5 -77 -137 -172 -293 -94 -155 -187 -310 -207
-343 -20 -33 -41 -69 -48 -80 -7 -11 -16 -28 -19 -38 -3 -9 -10 -17 -15 -17
-5 0 -9 -5 -9 -11 0 -6 -14 -31 -30 -56 -17 -24 -30 -47 -30 -51 0 -4 -9 -18
-20 -32 -11 -14 -20 -29 -20 -35 0 -6 82 -10 225 -10 143 0 225 4 225 10 0 6
3 6 8 0 10 -14 464 -14 474 0 5 7 8 7 8 0 0 -6 85 -10 235 -10 150 0 235 4
235 10 0 6 3 6 8 0 10 -14 464 -14 474 0 5 7 8 7 8 0 0 -6 85 -10 235 -10 150
0 235 4 235 10 0 6 3 6 8 0 10 -14 464 -14 474 0 5 7 8 7 8 0 0 -6 85 -10 235
-10 150 0 235 4 235 10 0 6 3 6 8 0 10 -14 464 -14 474 0 5 7 8 7 8 0 0 -6 85
-10 235 -10 150 0 235 4 235 10 0 6 3 6 8 0 10 -14 464 -14 474 0 5 7 8 7 8 0
0 -6 85 -10 235 -10 150 0 235 4 235 10 0 6 3 6 8 0 4 -7 107 -10 285 -10 257
0 277 1 277 18 0 9 -4 17 -10 17 -5 0 -10 4 -10 10 0 13 -102 184 -112 188 -5
2 -8 7 -8 12 0 7 -40 78 -72 128 -10 15 -27 43 -38 62 -22 38 -18 32 -175 291
-60 100 -117 193 -125 208 -20 34 -97 162 -133 220 -15 25 -30 54 -34 64 -3 9
-9 17 -14 17 -5 0 -9 7 -9 15 0 8 -4 15 -10 15 -5 0 -10 4 -10 9 0 5 -22 46
-50 90 -27 45 -46 81 -42 81 4 0 2 4 -4 8 -11 8 -21 23 -149 237 -33 55 -62
102 -66 105 -3 3 -12 20 -20 37 -8 18 -17 33 -21 33 -5 0 -8 7 -8 15 0 8 -3
15 -7 15 -5 0 -19 23 -33 51 -13 27 -31 58 -40 67 -8 9 -24 35 -35 57 -11 22
-22 42 -25 45 -4 3 -23 35 -44 71 l-39 67 -113 -1 c-63 0 -117 3 -121 7 -4 4
-7 324 -8 711 0 518 3 701 11 692 17 -18 204 -338 204 -348 0 -5 5 -9 11 -9 5
0 7 -4 4 -10 -3 -5 -1 -10 4 -10 6 0 11 -7 11 -15 0 -8 4 -15 8 -15 5 0 14
-16 22 -35 8 -19 17 -35 22 -35 4 0 8 -6 8 -14 0 -7 7 -19 15 -26 8 -7 15 -21
15 -31 0 -11 4 -19 10 -19 5 0 17 -15 25 -33 8 -17 26 -50 40 -72 14 -22 28
-47 32 -55 4 -8 9 -17 12 -20 5 -4 23 -35 55 -95 6 -11 14 -22 17 -25 3 -3 9
-12 13 -20 4 -8 12 -24 19 -35 7 -11 46 -78 87 -148 41 -70 83 -140 92 -155
10 -15 24 -40 33 -57 9 -16 21 -39 28 -50 6 -11 29 -48 50 -81 20 -34 37 -67
37 -73 0 -6 5 -11 10 -11 6 0 10 -7 10 -15 0 -8 5 -15 10 -15 6 0 10 -4 10
-10 0 -9 87 -160 176 -306 24 -40 44 -77 44 -83 0 -6 4 -11 8 -11 4 0 13 -12
20 -28 6 -15 52 -94 102 -177 50 -82 96 -161 103 -175 6 -14 15 -27 18 -30 4
-3 16 -22 28 -43 36 -64 57 -100 90 -155 17 -29 31 -57 31 -62 0 -6 4 -10 8
-10 5 0 16 -15 25 -33 9 -17 28 -51 42 -74 14 -24 36 -62 49 -85 21 -37 51
-65 44 -41 -1 4 10 27 25 50 15 24 27 46 27 51 0 4 5 13 12 20 7 7 26 37 43
66 16 30 51 92 78 137 26 45 47 86 47 90 0 5 4 9 10 9 5 0 12 11 16 25 3 14
10 25 14 25 5 0 12 9 15 21 4 11 19 40 34 62 15 23 36 59 46 80 11 20 23 37
27 37 5 0 8 5 8 11 0 6 29 60 65 120 36 61 65 115 65 120 0 5 4 9 9 9 5 0 11
8 15 18 3 9 13 31 23 47 29 49 76 128 96 160 9 17 20 38 23 47 4 10 10 18 14
18 5 0 12 10 16 22 3 12 22 45 40 74 19 29 34 58 34 64 0 5 5 10 10 10 6 0 10
5 10 10 0 6 20 43 43 83 133 220 177 297 177 307 0 5 4 10 9 10 5 0 15 16 22
35 7 19 16 35 20 35 4 0 9 8 13 18 3 9 10 24 16 32 12 19 144 242 154 261 4 8
12 23 19 34 7 11 29 49 50 85 21 36 42 72 47 80 47 76 90 152 90 160 0 6 4 10
9 10 5 0 11 8 14 18 7 21 62 117 88 154 10 14 19 31 19 37 0 6 5 11 10 11 6 0
10 6 10 13 0 6 8 22 18 34 16 22 17 -12 19 -681 l2 -703 -122 1 -122 1 -95
-158 c-52 -87 -99 -165 -105 -175 -20 -34 -59 -98 -90 -147 -17 -27 -35 -57
-39 -65 -10 -23 -29 -52 -54 -87 -12 -17 -22 -36 -22 -42 0 -6 -4 -11 -8 -11
-4 0 -13 -12 -20 -28 -13 -31 -51 -95 -61 -102 -3 -3 -13 -18 -21 -35 -8 -16
-17 -32 -20 -35 -9 -9 -30 -44 -40 -68 -5 -12 -14 -28 -20 -35 -18 -21 -100
-158 -100 -168 0 -5 -4 -9 -10 -9 -5 0 -10 -5 -10 -10 0 -6 -17 -37 -37 -68
-20 -31 -37 -59 -38 -62 0 -3 -26 -46 -58 -96 -31 -50 -57 -96 -57 -103 0 -6
-4 -11 -9 -11 -5 0 -16 -15 -26 -32 -35 -67 -51 -94 -73 -125 -12 -17 -22 -34
-22 -37 0 -6 -50 -86 -60 -96 -5 -5 -36 -61 -54 -97 -6 -13 -14 -23 -18 -23
-5 0 -8 -4 -8 -9 0 -5 -18 -38 -40 -72 -22 -35 -48 -79 -57 -96 -9 -18 -20
-33 -25 -33 -4 0 -8 -6 -8 -14 0 -7 -8 -24 -19 -37 -10 -13 -21 -33 -25 -44
-6 -20 -1 -20 2917 -19 2299 0 2921 3 2919 13 -1 6 -24 46 -50 89 -26 42 -53
89 -61 105 -8 15 -18 27 -23 27 -4 0 -8 4 -8 10 0 9 -181 312 -202 337 -6 7
-7 13 -2 13 5 0 2 5 -6 10 -8 5 -15 13 -15 17 -1 4 -12 26 -26 48 -57 88 -109
178 -109 186 0 5 -4 9 -10 9 -5 0 -10 4 -10 9 0 5 -23 46 -50 90 -28 44 -50
85 -50 91 0 5 -4 10 -9 10 -5 0 -13 10 -17 23 -4 12 -9 24 -13 27 -11 9 -161
261 -161 270 0 6 -4 10 -10 10 -5 0 -10 7 -10 15 0 8 -4 15 -10 15 -5 0 -10 5
-10 10 0 6 -12 29 -27 53 -45 69 -63 101 -69 119 -4 10 -10 18 -15 18 -5 0 -9
7 -9 15 0 8 -4 15 -8 15 -4 0 -13 12 -19 28 -7 15 -30 56 -53 91 -22 34 -40
67 -40 71 0 5 -3 10 -7 12 -10 4 -42 57 -50 81 -3 9 -9 17 -14 17 -5 0 -9 4
-9 10 0 5 -20 41 -45 80 -25 39 -45 75 -45 80 0 6 -3 10 -7 10 -5 0 -16 17
-26 38 -40 83 -46 86 -160 84 -56 -1 -109 0 -117 3 -12 4 -15 21 -15 72 0 38
5 71 10 75 7 5 7 8 0 8 -6 0 -9 51 -7 137 1 76 2 152 1 168 -4 120 -3 305 3
305 4 0 3 12 -1 28 -8 33 -7 135 3 150 3 6 3 13 -2 16 -9 5 -8 89 2 105 4 6 4
11 -1 11 -10 0 -10 121 0 137 4 6 3 14 -2 18 -7 3 -7 15 -1 30 5 13 6 26 2 29
-9 6 -8 68 1 83 4 6 3 14 -2 17 -6 4 -6 18 -1 36 5 17 6 30 2 30 -4 0 -7 16
-7 35 0 19 4 35 8 35 4 0 4 7 -1 17 -6 9 -6 29 -2 45 5 15 5 28 1 28 -8 0 -8
56 1 65 3 4 3 19 -2 33 -4 15 -4 37 1 49 5 13 4 25 -1 28 -6 3 -6 15 0 30 5
14 6 25 2 25 -8 0 -6 79 2 87 3 3 1 13 -4 22 -5 10 -5 23 0 31 5 8 5 21 -1 31
-5 11 -5 20 0 23 10 7 9 25 -2 43 -4 6 -3 14 3 18 7 4 7 12 0 26 -8 13 -7 25
0 39 8 14 8 20 0 20 -7 0 -7 6 0 21 8 14 8 24 1 32 -6 8 -6 18 -1 27 5 9 5 19
-1 27 -7 8 -7 18 1 32 7 15 7 21 0 21 -8 0 -8 6 0 20 8 14 8 26 0 40 -6 11 -8
25 -5 31 7 10 8 106 2 149 -2 14 1 30 5 37 5 6 4 14 -2 18 -8 5 -8 10 0 20 7
9 8 15 1 19 -7 4 -7 15 -1 31 6 15 6 27 0 30 -5 3 -6 15 -1 27 4 12 5 39 1 59
-5 24 -4 36 2 32 6 -3 7 4 2 18 -4 13 -7 29 -6 34 0 6 2 27 4 48 3 20 1 37 -3
37 -4 0 -3 17 2 38 4 21 4 38 -1 40 -4 2 -5 16 0 31 4 15 3 35 -2 44 -5 10 -5
17 -1 17 4 0 8 16 8 35 0 19 -3 35 -7 35 -4 0 -3 13 2 30 5 18 5 32 -1 36 -5
3 -6 11 -2 17 9 15 10 87 1 87 -4 0 -3 11 2 25 6 15 6 26 -1 30 -5 4 -6 12 -2
18 9 15 10 88 0 94 -4 2 -4 10 0 16 10 17 11 47 1 53 -4 3 -5 11 -1 17 10 16
10 77 0 77 -4 0 -5 5 -1 12 10 15 10 101 0 116 -4 7 -4 12 1 12 10 0 9 52 -1
68 -4 7 -4 12 1 12 12 0 10 254 -2 262 -7 5 -7 8 0 8 6 0 10 30 10 70 0 39 -4
70 -8 70 -4 0 -4 8 1 18 10 20 10 32 -1 48 -9 15 19 38 38 30 8 -3 15 -2 15 2
0 4 17 6 38 5 138 -10 151 -6 184 57 7 14 16 27 20 30 3 3 17 24 30 47 28 51
97 166 120 201 10 15 27 45 39 66 11 21 25 44 30 50 5 6 42 65 81 131 40 66
75 122 80 123 4 2 8 9 8 16 0 6 15 34 33 61 17 28 65 105 106 173 40 67 77
125 82 128 5 3 7 10 4 15 -4 5 -1 9 4 9 6 0 11 7 11 15 0 8 4 15 9 15 5 0 11
8 15 18 6 19 25 51 77 132 19 30 44 71 55 90 10 19 21 37 24 40 3 3 28 43 55
88 28 46 59 99 70 117 11 18 49 80 85 139 36 58 70 116 77 129 7 12 17 29 22
37 35 52 58 87 64 100 4 8 18 33 32 55 13 22 32 54 41 70 9 17 20 32 24 35 13
9 30 49 23 53 -5 2 -898 3 -1987 3 l-1979 -1 -64 -105 c-35 -58 -68 -114 -73
-125 -5 -11 -21 -38 -35 -60 -14 -22 -28 -47 -32 -55 -3 -8 -9 -17 -12 -20 -3
-3 -15 -23 -26 -45 -21 -42 -57 -101 -75 -122 -6 -7 -8 -13 -4 -13 3 0 -4 -15
-17 -32 -13 -18 -33 -51 -44 -73 -11 -22 -22 -42 -25 -45 -6 -5 -33 -51 -77
-130 -11 -19 -35 -60 -54 -90 -35 -57 -48 -79 -88 -152 -13 -23 -28 -46 -33
-49 -5 -3 -8 -8 -7 -10 3 -4 -51 -100 -61 -109 -3 -3 -11 -16 -17 -30 -7 -14
-26 -47 -42 -75 -17 -27 -40 -68 -53 -90 -12 -22 -27 -48 -33 -57 -5 -9 -37
-63 -69 -120 -33 -57 -63 -104 -68 -106 -4 -2 -8 -8 -8 -13 0 -4 -20 -43 -45
-85 -25 -41 -45 -80 -45 -85 0 -5 -4 -9 -9 -9 -5 0 -11 -8 -15 -17 -3 -10 -14
-31 -23 -48 -19 -31 -81 -137 -215 -365 -43 -74 -83 -142 -88 -150 -5 -8 -22
-37 -38 -65 -16 -27 -52 -90 -81 -140 -29 -49 -65 -110 -79 -135 -14 -25 -36
-61 -49 -80 -12 -19 -23 -40 -23 -47 0 -7 -4 -13 -9 -13 -5 0 -11 -8 -15 -17
-3 -10 -20 -40 -36 -68 -17 -27 -34 -58 -37 -67 -3 -10 -9 -18 -13 -18 -4 0
-11 -8 -14 -17 -3 -10 -12 -27 -19 -38 -7 -11 -30 -51 -51 -89 l-39 -68 -18
23 c-11 13 -24 36 -31 52 -7 15 -16 27 -20 27 -5 0 -8 5 -8 12 0 6 -23 49 -50
95 -28 46 -50 88 -50 93 0 6 -4 10 -10 10 -5 0 -10 7 -10 15 0 8 -4 15 -10 15
-5 0 -10 5 -10 10 0 6 -21 47 -47 91 -27 44 -59 99 -72 122 -13 23 -30 53 -39
67 -9 14 -27 45 -41 70 -13 25 -27 47 -30 50 -3 3 -13 19 -21 35 -8 17 -27 49
-42 72 -15 23 -28 44 -28 47 0 3 -16 30 -35 60 -19 30 -35 58 -35 61 0 4 -8
19 -19 33 -17 26 -47 78 -87 152 -11 19 -22 37 -25 40 -3 3 -16 25 -30 50 -13
25 -27 47 -31 48 -5 2 -8 8 -8 12 0 5 -20 42 -44 82 -76 126 -97 162 -103 181
-3 9 -9 17 -14 17 -5 0 -9 4 -9 9 0 5 -27 55 -60 111 -33 56 -60 106 -60 111
0 5 -3 9 -8 9 -4 0 -18 21 -32 48 -14 26 -42 75 -62 109 -21 35 -38 67 -38 73
0 5 -3 10 -8 10 -7 0 -13 9 -42 66 -8 16 -36 64 -62 107 -27 43 -48 80 -48 83
0 2 -16 28 -35 58 -19 30 -35 58 -35 61 0 3 -16 30 -34 60 -19 30 -44 71 -56
92 -11 21 -29 52 -39 68 -10 17 -27 46 -38 65 -11 19 -41 70 -67 113 -25 43
-46 81 -46 83 0 3 -11 20 -25 38 -14 18 -25 35 -25 38 0 6 -159 279 -167 288
-6 6 -3973 8 -3973 2z"/>
</g>
</svg>
